<svg width="28" height="29" viewBox="0 0 28 29" fill="none" xmlns="http://www.w3.org/2000/svg">
<circle cx="10" cy="10" r="9.5" stroke="#7B809A"/>
<path d="M10.8438 7.60352V15H8.86816V7.60352H10.8438ZM8.74512 5.67578C8.74512 5.38867 8.84538 5.15169 9.0459 4.96484C9.24642 4.77799 9.5153 4.68457 9.85254 4.68457C10.1852 4.68457 10.4518 4.77799 10.6523 4.96484C10.8574 5.15169 10.96 5.38867 10.96 5.67578C10.96 5.96289 10.8574 6.19987 10.6523 6.38672C10.4518 6.57357 10.1852 6.66699 9.85254 6.66699C9.5153 6.66699 9.24642 6.57357 9.0459 6.38672C8.84538 6.19987 8.74512 5.96289 8.74512 5.67578Z" fill="#7B809A"/>
</svg>
